# xmcd
#
# Track frame offsets: 
#        150
#        16382
#        40860
#
# Disc length: 1154 seconds
#
# Revision: 0
# Processed by: cddbd v1.5.2PL0 Copyright (c) Steve Scherf et al.
# Submitted via: ExactAudioCopy v1.0b3
#
DISCID=1a048003
DTITLE=Flyer - Comin' Home
DYEAR=1900
DGENRE=
TTITLE0=Comin' Home (Radio Edit)
TTITLE1=Comin' Home (Extended Edit)
TTITLE2=Comin' Home (Club Mix)
EXTD=
EXTT0=
EXTT1=
EXTT2=
PLAYORDER=
